<?xml version="1.0" encoding="UTF-8" standalone="no"?>
<!DOCTYPE svg PUBLIC "-//W3C//DTD SVG 1.1//EN"
 "http://www.w3.org/Graphics/SVG/1.1/DTD/svg11.dtd">
<!-- Generated by graphviz version 2.43.0 (0)
 -->
<!-- Title: G Pages: 1 -->
<svg width="1743pt" height="623pt"
 viewBox="0.00 0.00 1743.20 623.20" xmlns="http://www.w3.org/2000/svg" xmlns:xlink="http://www.w3.org/1999/xlink">
<g id="graph0" class="graph" transform="scale(1 1) rotate(0) translate(21.6 601.6)">
<title>G</title>
<polygon fill="#111111" stroke="transparent" points="-21.6,21.6 -21.6,-601.6 1721.6,-601.6 1721.6,21.6 -21.6,21.6"/>
<!-- App.css -->
<g id="node1" class="node">
<title>App.css</title>
<path fill="none" stroke="#cfffac" d="M384.33,-563C384.33,-563 334.67,-563 334.67,-563 330.83,-563 327,-559.17 327,-555.33 327,-555.33 327,-547.67 327,-547.67 327,-543.83 330.83,-540 334.67,-540 334.67,-540 384.33,-540 384.33,-540 388.17,-540 392,-543.83 392,-547.67 392,-547.67 392,-555.33 392,-555.33 392,-559.17 388.17,-563 384.33,-563"/>
<text text-anchor="middle" x="359.5" y="-547.8" font-family="Arial" font-size="14.00" fill="#cfffac">App.css</text>
</g>
<!-- App.tsx -->
<g id="node2" class="node">
<title>App.tsx</title>
<path fill="none" stroke="#c6c5fe" d="M192.83,-443C192.83,-443 146.17,-443 146.17,-443 142.33,-443 138.5,-439.17 138.5,-435.33 138.5,-435.33 138.5,-427.67 138.5,-427.67 138.5,-423.83 142.33,-420 146.17,-420 146.17,-420 192.83,-420 192.83,-420 196.67,-420 200.5,-423.83 200.5,-427.67 200.5,-427.67 200.5,-435.33 200.5,-435.33 200.5,-439.17 196.67,-443 192.83,-443"/>
<text text-anchor="middle" x="169.5" y="-427.8" font-family="Arial" font-size="14.00" fill="#c6c5fe">App.tsx</text>
</g>
<!-- App.tsx&#45;&gt;App.css -->
<g id="edge1" class="edge">
<title>App.tsx&#45;&gt;App.css</title>
<path fill="none" stroke="#757575" d="M200.78,-441.62C211.84,-446.38 223.87,-452.94 233,-461.5 256.81,-483.82 243.43,-505.22 269,-525.5 282.65,-536.32 300.64,-542.64 316.92,-546.33"/>
<polygon fill="#757575" stroke="#757575" points="316.28,-549.77 326.78,-548.3 317.66,-542.91 316.28,-549.77"/>
</g>
<!-- components/LoginForm.tsx -->
<g id="node3" class="node">
<title>components/LoginForm.tsx</title>
<path fill="none" stroke="#c6c5fe" d="M442.33,-383C442.33,-383 276.67,-383 276.67,-383 272.83,-383 269,-379.17 269,-375.33 269,-375.33 269,-367.67 269,-367.67 269,-363.83 272.83,-360 276.67,-360 276.67,-360 442.33,-360 442.33,-360 446.17,-360 450,-363.83 450,-367.67 450,-367.67 450,-375.33 450,-375.33 450,-379.17 446.17,-383 442.33,-383"/>
<text text-anchor="middle" x="359.5" y="-367.8" font-family="Arial" font-size="14.00" fill="#c6c5fe">components/LoginForm.tsx</text>
</g>
<!-- App.tsx&#45;&gt;components/LoginForm.tsx -->
<g id="edge2" class="edge">
<title>App.tsx&#45;&gt;components/LoginForm.tsx</title>
<path fill="none" stroke="#757575" d="M196.88,-419.83C216.5,-411.46 244.08,-400.31 269,-392.5 276.99,-390 285.47,-387.64 293.89,-385.47"/>
<polygon fill="#757575" stroke="#757575" points="294.87,-388.83 303.73,-383.01 293.18,-382.04 294.87,-388.83"/>
</g>
<!-- components/Projects.tsx -->
<g id="node4" class="node">
<title>components/Projects.tsx</title>
<path fill="none" stroke="#c6c5fe" d="M433.83,-465C433.83,-465 285.17,-465 285.17,-465 281.33,-465 277.5,-461.17 277.5,-457.33 277.5,-457.33 277.5,-449.67 277.5,-449.67 277.5,-445.83 281.33,-442 285.17,-442 285.17,-442 433.83,-442 433.83,-442 437.67,-442 441.5,-445.83 441.5,-449.67 441.5,-449.67 441.5,-457.33 441.5,-457.33 441.5,-461.17 437.67,-465 433.83,-465"/>
<text text-anchor="middle" x="359.5" y="-449.8" font-family="Arial" font-size="14.00" fill="#c6c5fe">components/Projects.tsx</text>
</g>
<!-- App.tsx&#45;&gt;components/Projects.tsx -->
<g id="edge3" class="edge">
<title>App.tsx&#45;&gt;components/Projects.tsx</title>
<path fill="none" stroke="#757575" d="M200.71,-435.03C218.87,-437.16 243.05,-439.99 267.01,-442.79"/>
<polygon fill="#757575" stroke="#757575" points="266.91,-446.31 277.25,-443.99 267.73,-439.35 266.91,-446.31"/>
</g>
<!-- components/TopBar.tsx -->
<g id="node5" class="node">
<title>components/TopBar.tsx</title>
<path fill="none" stroke="#cfffac" d="M430.83,-424C430.83,-424 288.17,-424 288.17,-424 284.33,-424 280.5,-420.17 280.5,-416.33 280.5,-416.33 280.5,-408.67 280.5,-408.67 280.5,-404.83 284.33,-401 288.17,-401 288.17,-401 430.83,-401 430.83,-401 434.67,-401 438.5,-404.83 438.5,-408.67 438.5,-408.67 438.5,-416.33 438.5,-416.33 438.5,-420.17 434.67,-424 430.83,-424"/>
<text text-anchor="middle" x="359.5" y="-408.8" font-family="Arial" font-size="14.00" fill="#cfffac">components/TopBar.tsx</text>
</g>
<!-- App.tsx&#45;&gt;components/TopBar.tsx -->
<g id="edge4" class="edge">
<title>App.tsx&#45;&gt;components/TopBar.tsx</title>
<path fill="none" stroke="#757575" d="M200.71,-428.45C219.59,-426.54 244.98,-423.97 269.86,-421.46"/>
<polygon fill="#757575" stroke="#757575" points="270.5,-424.91 280.1,-420.42 269.8,-417.95 270.5,-424.91"/>
</g>
<!-- pages/GraphPage.tsx -->
<g id="node6" class="node">
<title>pages/GraphPage.tsx</title>
<path fill="none" stroke="#c6c5fe" d="M425.83,-232C425.83,-232 293.17,-232 293.17,-232 289.33,-232 285.5,-228.17 285.5,-224.33 285.5,-224.33 285.5,-216.67 285.5,-216.67 285.5,-212.83 289.33,-209 293.17,-209 293.17,-209 425.83,-209 425.83,-209 429.67,-209 433.5,-212.83 433.5,-216.67 433.5,-216.67 433.5,-224.33 433.5,-224.33 433.5,-228.17 429.67,-232 425.83,-232"/>
<text text-anchor="middle" x="359.5" y="-216.8" font-family="Arial" font-size="14.00" fill="#c6c5fe">pages/GraphPage.tsx</text>
</g>
<!-- App.tsx&#45;&gt;pages/GraphPage.tsx -->
<g id="edge5" class="edge">
<title>App.tsx&#45;&gt;pages/GraphPage.tsx</title>
<path fill="none" stroke="#757575" d="M179.37,-419.84C196.2,-397.89 234.2,-349.15 269,-310.5 292.09,-284.85 320.43,-256.9 338.95,-239.06"/>
<polygon fill="#757575" stroke="#757575" points="341.44,-241.52 346.24,-232.07 336.6,-236.46 341.44,-241.52"/>
</g>
<!-- pages/Registration.tsx -->
<g id="node7" class="node">
<title>pages/Registration.tsx</title>
<path fill="none" stroke="#c6c5fe" d="M426.83,-342C426.83,-342 292.17,-342 292.17,-342 288.33,-342 284.5,-338.17 284.5,-334.33 284.5,-334.33 284.5,-326.67 284.5,-326.67 284.5,-322.83 288.33,-319 292.17,-319 292.17,-319 426.83,-319 426.83,-319 430.67,-319 434.5,-322.83 434.5,-326.67 434.5,-326.67 434.5,-334.33 434.5,-334.33 434.5,-338.17 430.67,-342 426.83,-342"/>
<text text-anchor="middle" x="359.5" y="-326.8" font-family="Arial" font-size="14.00" fill="#c6c5fe">pages/Registration.tsx</text>
</g>
<!-- App.tsx&#45;&gt;pages/Registration.tsx -->
<g id="edge6" class="edge">
<title>App.tsx&#45;&gt;pages/Registration.tsx</title>
<path fill="none" stroke="#757575" d="M181.41,-419.74C198.41,-402.15 233.01,-369.17 269,-351.5 273.63,-349.23 278.51,-347.2 283.51,-345.38"/>
<polygon fill="#757575" stroke="#757575" points="284.86,-348.62 293.24,-342.14 282.65,-341.98 284.86,-348.62"/>
</g>
<!-- reducers/projectReducer.ts -->
<g id="node8" class="node">
<title>reducers/projectReducer.ts</title>
<path fill="none" stroke="#cfffac" d="M920.83,-504C920.83,-504 758.17,-504 758.17,-504 754.33,-504 750.5,-500.17 750.5,-496.33 750.5,-496.33 750.5,-488.67 750.5,-488.67 750.5,-484.83 754.33,-481 758.17,-481 758.17,-481 920.83,-481 920.83,-481 924.67,-481 928.5,-484.83 928.5,-488.67 928.5,-488.67 928.5,-496.33 928.5,-496.33 928.5,-500.17 924.67,-504 920.83,-504"/>
<text text-anchor="middle" x="839.5" y="-488.8" font-family="Arial" font-size="14.00" fill="#cfffac">reducers/projectReducer.ts</text>
</g>
<!-- App.tsx&#45;&gt;reducers/projectReducer.ts -->
<g id="edge7" class="edge">
<title>App.tsx&#45;&gt;reducers/projectReducer.ts</title>
<path fill="none" stroke="#757575" d="M194.19,-443.02C218.31,-454.54 254.2,-471.02 269,-474.5 430.7,-512.55 625.32,-508.43 740.09,-501.09"/>
<polygon fill="#757575" stroke="#757575" points="740.51,-504.57 750.26,-500.41 740.05,-497.58 740.51,-504.57"/>
</g>
<!-- components/Logo.tsx -->
<g id="node22" class="node">
<title>components/Logo.tsx</title>
<path fill="none" stroke="#cfffac" d="M661.33,-374C661.33,-374 530.67,-374 530.67,-374 526.83,-374 523,-370.17 523,-366.33 523,-366.33 523,-358.67 523,-358.67 523,-354.83 526.83,-351 530.67,-351 530.67,-351 661.33,-351 661.33,-351 665.17,-351 669,-354.83 669,-358.67 669,-358.67 669,-366.33 669,-366.33 669,-370.17 665.17,-374 661.33,-374"/>
<text text-anchor="middle" x="596" y="-358.8" font-family="Arial" font-size="14.00" fill="#cfffac">components/Logo.tsx</text>
</g>
<!-- components/LoginForm.tsx&#45;&gt;components/Logo.tsx -->
<g id="edge17" class="edge">
<title>components/LoginForm.tsx&#45;&gt;components/Logo.tsx</title>
<path fill="none" stroke="#757575" d="M450.16,-368.06C470.73,-367.27 492.51,-366.43 512.75,-365.66"/>
<polygon fill="#757575" stroke="#757575" points="513.01,-369.15 522.87,-365.27 512.74,-362.15 513.01,-369.15"/>
</g>
<!-- components/Projects.tsx&#45;&gt;reducers/projectReducer.ts -->
<g id="edge33" class="edge">
<title>components/Projects.tsx&#45;&gt;reducers/projectReducer.ts</title>
<path fill="none" stroke="#757575" d="M441.59,-460.12C524.04,-466.84 651.89,-477.27 740.09,-484.47"/>
<polygon fill="#757575" stroke="#757575" points="739.86,-487.96 750.11,-485.29 740.43,-480.99 739.86,-487.96"/>
</g>
<!-- components/ProjectCard.tsx -->
<g id="node27" class="node">
<title>components/ProjectCard.tsx</title>
<path fill="none" stroke="#c6c5fe" d="M681.83,-454C681.83,-454 510.17,-454 510.17,-454 506.33,-454 502.5,-450.17 502.5,-446.33 502.5,-446.33 502.5,-438.67 502.5,-438.67 502.5,-434.83 506.33,-431 510.17,-431 510.17,-431 681.83,-431 681.83,-431 685.67,-431 689.5,-434.83 689.5,-438.67 689.5,-438.67 689.5,-446.33 689.5,-446.33 689.5,-450.17 685.67,-454 681.83,-454"/>
<text text-anchor="middle" x="596" y="-438.8" font-family="Arial" font-size="14.00" fill="#c6c5fe">components/ProjectCard.tsx</text>
</g>
<!-- components/Projects.tsx&#45;&gt;components/ProjectCard.tsx -->
<g id="edge31" class="edge">
<title>components/Projects.tsx&#45;&gt;components/ProjectCard.tsx</title>
<path fill="none" stroke="#757575" d="M441.53,-449.7C457.76,-448.94 475.01,-448.13 491.86,-447.34"/>
<polygon fill="#757575" stroke="#757575" points="492.47,-450.81 502.3,-446.85 492.14,-443.82 492.47,-450.81"/>
</g>
<!-- components/ProjectForm.tsx -->
<g id="node28" class="node">
<title>components/ProjectForm.tsx</title>
<path fill="none" stroke="#cfffac" d="M926.83,-444C926.83,-444 752.17,-444 752.17,-444 748.33,-444 744.5,-440.17 744.5,-436.33 744.5,-436.33 744.5,-428.67 744.5,-428.67 744.5,-424.83 748.33,-421 752.17,-421 752.17,-421 926.83,-421 926.83,-421 930.67,-421 934.5,-424.83 934.5,-428.67 934.5,-428.67 934.5,-436.33 934.5,-436.33 934.5,-440.17 930.67,-444 926.83,-444"/>
<text text-anchor="middle" x="839.5" y="-428.8" font-family="Arial" font-size="14.00" fill="#cfffac">components/ProjectForm.tsx</text>
</g>
<!-- components/Projects.tsx&#45;&gt;components/ProjectForm.tsx -->
<g id="edge32" class="edge">
<title>components/Projects.tsx&#45;&gt;components/ProjectForm.tsx</title>
<path fill="none" stroke="#757575" d="M415.57,-441.89C426.99,-439.29 438.92,-436.43 450,-433.5 466.18,-429.23 469.45,-424.97 486,-422.5 569.25,-410.06 664.75,-413.87 735.34,-420.06"/>
<polygon fill="#757575" stroke="#757575" points="735.29,-423.57 745.56,-420.99 735.92,-416.6 735.29,-423.57"/>
</g>
<!-- components/ElementDetail.tsx -->
<g id="node15" class="node">
<title>components/ElementDetail.tsx</title>
<path fill="none" stroke="#c6c5fe" d="M688.33,-191C688.33,-191 503.67,-191 503.67,-191 499.83,-191 496,-187.17 496,-183.33 496,-183.33 496,-175.67 496,-175.67 496,-171.83 499.83,-168 503.67,-168 503.67,-168 688.33,-168 688.33,-168 692.17,-168 696,-171.83 696,-175.67 696,-175.67 696,-183.33 696,-183.33 696,-187.17 692.17,-191 688.33,-191"/>
<text text-anchor="middle" x="596" y="-175.8" font-family="Arial" font-size="14.00" fill="#c6c5fe">components/ElementDetail.tsx</text>
</g>
<!-- pages/GraphPage.tsx&#45;&gt;components/ElementDetail.tsx -->
<g id="edge39" class="edge">
<title>pages/GraphPage.tsx&#45;&gt;components/ElementDetail.tsx</title>
<path fill="none" stroke="#757575" d="M426.45,-208.97C455.29,-203.93 489.3,-197.98 519.18,-192.76"/>
<polygon fill="#757575" stroke="#757575" points="519.9,-196.18 529.14,-191.01 518.69,-189.29 519.9,-196.18"/>
</g>
<!-- components/Graph.tsx -->
<g id="node17" class="node">
<title>components/Graph.tsx</title>
<path fill="none" stroke="#c6c5fe" d="M665.33,-130C665.33,-130 526.67,-130 526.67,-130 522.83,-130 519,-126.17 519,-122.33 519,-122.33 519,-114.67 519,-114.67 519,-110.83 522.83,-107 526.67,-107 526.67,-107 665.33,-107 665.33,-107 669.17,-107 673,-110.83 673,-114.67 673,-114.67 673,-122.33 673,-122.33 673,-126.17 669.17,-130 665.33,-130"/>
<text text-anchor="middle" x="596" y="-114.8" font-family="Arial" font-size="14.00" fill="#c6c5fe">components/Graph.tsx</text>
</g>
<!-- pages/GraphPage.tsx&#45;&gt;components/Graph.tsx -->
<g id="edge40" class="edge">
<title>pages/GraphPage.tsx&#45;&gt;components/Graph.tsx</title>
<path fill="none" stroke="#757575" d="M382.38,-208.8C407.16,-195.75 448.93,-174.41 486,-158.5 507.17,-149.42 531.17,-140.47 551.24,-133.35"/>
<polygon fill="#757575" stroke="#757575" points="552.48,-136.62 560.75,-130.01 550.16,-130.02 552.48,-136.62"/>
</g>
<!-- components/GraphProps.tsx -->
<g id="node21" class="node">
<title>components/GraphProps.tsx</title>
<path fill="none" stroke="#cfffac" d="M682.83,-273C682.83,-273 509.17,-273 509.17,-273 505.33,-273 501.5,-269.17 501.5,-265.33 501.5,-265.33 501.5,-257.67 501.5,-257.67 501.5,-253.83 505.33,-250 509.17,-250 509.17,-250 682.83,-250 682.83,-250 686.67,-250 690.5,-253.83 690.5,-257.67 690.5,-257.67 690.5,-265.33 690.5,-265.33 690.5,-269.17 686.67,-273 682.83,-273"/>
<text text-anchor="middle" x="596" y="-257.8" font-family="Arial" font-size="14.00" fill="#cfffac">components/GraphProps.tsx</text>
</g>
<!-- pages/GraphPage.tsx&#45;&gt;components/GraphProps.tsx -->
<g id="edge41" class="edge">
<title>pages/GraphPage.tsx&#45;&gt;components/GraphProps.tsx</title>
<path fill="none" stroke="#757575" d="M426.45,-232.03C455.29,-237.07 489.3,-243.02 519.18,-248.24"/>
<polygon fill="#757575" stroke="#757575" points="518.69,-251.71 529.14,-249.99 519.9,-244.82 518.69,-251.71"/>
</g>
<!-- components/MemberModal.tsx -->
<g id="node23" class="node">
<title>components/MemberModal.tsx</title>
<path fill="none" stroke="#cfffac" d="M690.33,-232C690.33,-232 501.67,-232 501.67,-232 497.83,-232 494,-228.17 494,-224.33 494,-224.33 494,-216.67 494,-216.67 494,-212.83 497.83,-209 501.67,-209 501.67,-209 690.33,-209 690.33,-209 694.17,-209 698,-212.83 698,-216.67 698,-216.67 698,-224.33 698,-224.33 698,-228.17 694.17,-232 690.33,-232"/>
<text text-anchor="middle" x="596" y="-216.8" font-family="Arial" font-size="14.00" fill="#cfffac">components/MemberModal.tsx</text>
</g>
<!-- pages/GraphPage.tsx&#45;&gt;components/MemberModal.tsx -->
<g id="edge42" class="edge">
<title>pages/GraphPage.tsx&#45;&gt;components/MemberModal.tsx</title>
<path fill="none" stroke="#757575" d="M433.73,-220.5C449.68,-220.5 466.91,-220.5 483.96,-220.5"/>
<polygon fill="#757575" stroke="#757575" points="483.96,-224 493.96,-220.5 483.96,-217 483.96,-224"/>
</g>
<!-- pages/Registration.tsx&#45;&gt;components/Logo.tsx -->
<g id="edge43" class="edge">
<title>pages/Registration.tsx&#45;&gt;components/Logo.tsx</title>
<path fill="none" stroke="#757575" d="M434.7,-340.62C459.57,-344.02 487.45,-347.82 512.9,-351.3"/>
<polygon fill="#757575" stroke="#757575" points="512.51,-354.78 522.89,-352.66 513.45,-347.84 512.51,-354.78"/>
</g>
<!-- components/RegistrationForm.tsx -->
<g id="node29" class="node">
<title>components/RegistrationForm.tsx</title>
<path fill="none" stroke="#c6c5fe" d="M698.33,-333C698.33,-333 493.67,-333 493.67,-333 489.83,-333 486,-329.17 486,-325.33 486,-325.33 486,-317.67 486,-317.67 486,-313.83 489.83,-310 493.67,-310 493.67,-310 698.33,-310 698.33,-310 702.17,-310 706,-313.83 706,-317.67 706,-317.67 706,-325.33 706,-325.33 706,-329.17 702.17,-333 698.33,-333"/>
<text text-anchor="middle" x="596" y="-317.8" font-family="Arial" font-size="14.00" fill="#c6c5fe">components/RegistrationForm.tsx</text>
</g>
<!-- pages/Registration.tsx&#45;&gt;components/RegistrationForm.tsx -->
<g id="edge44" class="edge">
<title>pages/Registration.tsx&#45;&gt;components/RegistrationForm.tsx</title>
<path fill="none" stroke="#757575" d="M434.7,-327.65C447.76,-327.15 461.66,-326.62 475.59,-326.08"/>
<polygon fill="#757575" stroke="#757575" points="475.87,-329.57 485.73,-325.69 475.6,-322.58 475.87,-329.57"/>
</g>
<!-- components/AssignUsers.tsx -->
<g id="node9" class="node">
<title>components/AssignUsers.tsx</title>
<path fill="none" stroke="#c6c5fe" d="M1433.33,-144C1433.33,-144 1257.67,-144 1257.67,-144 1253.83,-144 1250,-140.17 1250,-136.33 1250,-136.33 1250,-128.67 1250,-128.67 1250,-124.83 1253.83,-121 1257.67,-121 1257.67,-121 1433.33,-121 1433.33,-121 1437.17,-121 1441,-124.83 1441,-128.67 1441,-128.67 1441,-136.33 1441,-136.33 1441,-140.17 1437.17,-144 1433.33,-144"/>
<text text-anchor="middle" x="1345.5" y="-128.8" font-family="Arial" font-size="14.00" fill="#c6c5fe">components/AssignUsers.tsx</text>
</g>
<!-- components/styles/Sidebar.css -->
<g id="node10" class="node">
<title>components/styles/Sidebar.css</title>
<path fill="none" stroke="#cfffac" d="M1692.33,-164C1692.33,-164 1504.67,-164 1504.67,-164 1500.83,-164 1497,-160.17 1497,-156.33 1497,-156.33 1497,-148.67 1497,-148.67 1497,-144.83 1500.83,-141 1504.67,-141 1504.67,-141 1692.33,-141 1692.33,-141 1696.17,-141 1700,-144.83 1700,-148.67 1700,-148.67 1700,-156.33 1700,-156.33 1700,-160.17 1696.17,-164 1692.33,-164"/>
<text text-anchor="middle" x="1598.5" y="-148.8" font-family="Arial" font-size="14.00" fill="#cfffac">components/styles/Sidebar.css</text>
</g>
<!-- components/AssignUsers.tsx&#45;&gt;components/styles/Sidebar.css -->
<g id="edge8" class="edge">
<title>components/AssignUsers.tsx&#45;&gt;components/styles/Sidebar.css</title>
<path fill="none" stroke="#757575" d="M1441.03,-140.03C1455.97,-141.22 1471.53,-142.46 1486.79,-143.68"/>
<polygon fill="#757575" stroke="#757575" points="1486.52,-147.17 1496.76,-144.47 1487.07,-140.19 1486.52,-147.17"/>
</g>
<!-- components/AssignedUsers.tsx -->
<g id="node11" class="node">
<title>components/AssignedUsers.tsx</title>
<path fill="none" stroke="#c6c5fe" d="M1440.83,-64C1440.83,-64 1250.17,-64 1250.17,-64 1246.33,-64 1242.5,-60.17 1242.5,-56.33 1242.5,-56.33 1242.5,-48.67 1242.5,-48.67 1242.5,-44.83 1246.33,-41 1250.17,-41 1250.17,-41 1440.83,-41 1440.83,-41 1444.67,-41 1448.5,-44.83 1448.5,-48.67 1448.5,-48.67 1448.5,-56.33 1448.5,-56.33 1448.5,-60.17 1444.67,-64 1440.83,-64"/>
<text text-anchor="middle" x="1345.5" y="-48.8" font-family="Arial" font-size="14.00" fill="#c6c5fe">components/AssignedUsers.tsx</text>
</g>
<!-- components/AssignedUsers.tsx&#45;&gt;components/styles/Sidebar.css -->
<g id="edge9" class="edge">
<title>components/AssignedUsers.tsx&#45;&gt;components/styles/Sidebar.css</title>
<path fill="none" stroke="#757575" d="M1411.6,-64.04C1427.99,-67.83 1445.36,-72.61 1461,-78.5 1501.17,-93.62 1544.18,-118.56 1570.95,-135.25"/>
<polygon fill="#757575" stroke="#757575" points="1569.39,-138.41 1579.71,-140.78 1573.12,-132.49 1569.39,-138.41"/>
</g>
<!-- components/CommentMessage.tsx -->
<g id="node12" class="node">
<title>components/CommentMessage.tsx</title>
<path fill="none" stroke="#cfffac" d="M1453.33,-23C1453.33,-23 1237.67,-23 1237.67,-23 1233.83,-23 1230,-19.17 1230,-15.33 1230,-15.33 1230,-7.67 1230,-7.67 1230,-3.83 1233.83,0 1237.67,0 1237.67,0 1453.33,0 1453.33,0 1457.17,0 1461,-3.83 1461,-7.67 1461,-7.67 1461,-15.33 1461,-15.33 1461,-19.17 1457.17,-23 1453.33,-23"/>
<text text-anchor="middle" x="1345.5" y="-7.8" font-family="Arial" font-size="14.00" fill="#cfffac">components/CommentMessage.tsx</text>
</g>
<!-- components/CommentSection.tsx -->
<g id="node13" class="node">
<title>components/CommentSection.tsx</title>
<path fill="none" stroke="#c6c5fe" d="M1186.33,-24C1186.33,-24 980.67,-24 980.67,-24 976.83,-24 973,-20.17 973,-16.33 973,-16.33 973,-8.67 973,-8.67 973,-4.83 976.83,-1 980.67,-1 980.67,-1 1186.33,-1 1186.33,-1 1190.17,-1 1194,-4.83 1194,-8.67 1194,-8.67 1194,-16.33 1194,-16.33 1194,-20.17 1190.17,-24 1186.33,-24"/>
<text text-anchor="middle" x="1083.5" y="-8.8" font-family="Arial" font-size="14.00" fill="#c6c5fe">components/CommentSection.tsx</text>
</g>
<!-- components/CommentSection.tsx&#45;&gt;components/CommentMessage.tsx -->
<g id="edge10" class="edge">
<title>components/CommentSection.tsx&#45;&gt;components/CommentMessage.tsx</title>
<path fill="none" stroke="#757575" d="M1194.01,-12.08C1202.49,-12.05 1211.09,-12.01 1219.65,-11.98"/>
<polygon fill="#757575" stroke="#757575" points="1219.7,-15.48 1229.69,-11.94 1219.68,-8.48 1219.7,-15.48"/>
</g>
<!-- components/EdgeDetail.tsx -->
<g id="node14" class="node">
<title>components/EdgeDetail.tsx</title>
<path fill="none" stroke="#c6c5fe" d="M1428.83,-292C1428.83,-292 1262.17,-292 1262.17,-292 1258.33,-292 1254.5,-288.17 1254.5,-284.33 1254.5,-284.33 1254.5,-276.67 1254.5,-276.67 1254.5,-272.83 1258.33,-269 1262.17,-269 1262.17,-269 1428.83,-269 1428.83,-269 1432.67,-269 1436.5,-272.83 1436.5,-276.67 1436.5,-276.67 1436.5,-284.33 1436.5,-284.33 1436.5,-288.17 1432.67,-292 1428.83,-292"/>
<text text-anchor="middle" x="1345.5" y="-276.8" font-family="Arial" font-size="14.00" fill="#c6c5fe">components/EdgeDetail.tsx</text>
</g>
<!-- components/EdgeDetail.tsx&#45;&gt;components/styles/Sidebar.css -->
<g id="edge11" class="edge">
<title>components/EdgeDetail.tsx&#45;&gt;components/styles/Sidebar.css</title>
<path fill="none" stroke="#757575" d="M1393.63,-268.99C1414.77,-263 1439.69,-254.76 1461,-244.5 1504.03,-223.78 1549.04,-190.91 1575.12,-170.58"/>
<polygon fill="#757575" stroke="#757575" points="1577.52,-173.14 1583.21,-164.2 1573.19,-167.65 1577.52,-173.14"/>
</g>
<!-- components/ElementDetail.tsx&#45;&gt;components/EdgeDetail.tsx -->
<g id="edge12" class="edge">
<title>components/ElementDetail.tsx&#45;&gt;components/EdgeDetail.tsx</title>
<path fill="none" stroke="#757575" d="M664.92,-191.04C678.57,-193.61 692.78,-196.48 706,-199.5 825.94,-226.85 851.25,-254.82 973,-272.5 1064,-285.72 1168.84,-286.69 1243.9,-284.97"/>
<polygon fill="#757575" stroke="#757575" points="1244.38,-288.45 1254.29,-284.7 1244.2,-281.46 1244.38,-288.45"/>
</g>
<!-- components/NodeDetail.tsx -->
<g id="node16" class="node">
<title>components/NodeDetail.tsx</title>
<path fill="none" stroke="#c6c5fe" d="M922.83,-182C922.83,-182 756.17,-182 756.17,-182 752.33,-182 748.5,-178.17 748.5,-174.33 748.5,-174.33 748.5,-166.67 748.5,-166.67 748.5,-162.83 752.33,-159 756.17,-159 756.17,-159 922.83,-159 922.83,-159 926.67,-159 930.5,-162.83 930.5,-166.67 930.5,-166.67 930.5,-174.33 930.5,-174.33 930.5,-178.17 926.67,-182 922.83,-182"/>
<text text-anchor="middle" x="839.5" y="-166.8" font-family="Arial" font-size="14.00" fill="#c6c5fe">components/NodeDetail.tsx</text>
</g>
<!-- components/ElementDetail.tsx&#45;&gt;components/NodeDetail.tsx -->
<g id="edge13" class="edge">
<title>components/ElementDetail.tsx&#45;&gt;components/NodeDetail.tsx</title>
<path fill="none" stroke="#757575" d="M696.27,-175.8C710.09,-175.29 724.3,-174.76 738.14,-174.24"/>
<polygon fill="#757575" stroke="#757575" points="738.27,-177.74 748.14,-173.87 738.01,-170.74 738.27,-177.74"/>
</g>
<!-- components/NodeDetail.tsx&#45;&gt;components/AssignUsers.tsx -->
<g id="edge18" class="edge">
<title>components/NodeDetail.tsx&#45;&gt;components/AssignUsers.tsx</title>
<path fill="none" stroke="#757575" d="M930.61,-160.48C944.79,-159.05 959.29,-157.67 973,-156.5 1062.8,-148.86 1164.99,-142.42 1239.44,-138.14"/>
<polygon fill="#757575" stroke="#757575" points="1239.97,-141.62 1249.75,-137.55 1239.57,-134.63 1239.97,-141.62"/>
</g>
<!-- components/NodeDetail.tsx&#45;&gt;components/styles/Sidebar.css -->
<g id="edge24" class="edge">
<title>components/NodeDetail.tsx&#45;&gt;components/styles/Sidebar.css</title>
<path fill="none" stroke="#757575" d="M930.68,-168.36C1069.71,-165.05 1336.01,-158.72 1486.61,-155.14"/>
<polygon fill="#757575" stroke="#757575" points="1486.89,-158.63 1496.8,-154.89 1486.72,-151.63 1486.89,-158.63"/>
</g>
<!-- components/NodeDetail.tsx&#45;&gt;components/AssignedUsers.tsx -->
<g id="edge19" class="edge">
<title>components/NodeDetail.tsx&#45;&gt;components/AssignedUsers.tsx</title>
<path fill="none" stroke="#757575" d="M921.62,-158.97C927.12,-156.38 932.32,-153.26 937,-149.5 966.78,-125.6 941.38,-92.89 973,-71.5 1013.9,-43.83 1138.51,-42.44 1232.22,-45.8"/>
<polygon fill="#757575" stroke="#757575" points="1232.21,-49.31 1242.33,-46.19 1232.47,-42.31 1232.21,-49.31"/>
</g>
<!-- components/NodeDetail.tsx&#45;&gt;components/CommentSection.tsx -->
<g id="edge20" class="edge">
<title>components/NodeDetail.tsx&#45;&gt;components/CommentSection.tsx</title>
<path fill="none" stroke="#757575" d="M923.51,-158.86C928.37,-156.27 932.93,-153.18 937,-149.5 975.45,-114.69 934.88,-73.67 973,-38.5 977.08,-34.73 981.61,-31.48 986.43,-28.68"/>
<polygon fill="#757575" stroke="#757575" points="988.09,-31.76 995.4,-24.1 984.9,-25.53 988.09,-31.76"/>
</g>
<!-- components/NodeFieldForm.tsx -->
<g id="node24" class="node">
<title>components/NodeFieldForm.tsx</title>
<path fill="none" stroke="#c6c5fe" d="M1180.33,-104C1180.33,-104 986.67,-104 986.67,-104 982.83,-104 979,-100.17 979,-96.33 979,-96.33 979,-88.67 979,-88.67 979,-84.83 982.83,-81 986.67,-81 986.67,-81 1180.33,-81 1180.33,-81 1184.17,-81 1188,-84.83 1188,-88.67 1188,-88.67 1188,-96.33 1188,-96.33 1188,-100.17 1184.17,-104 1180.33,-104"/>
<text text-anchor="middle" x="1083.5" y="-88.8" font-family="Arial" font-size="14.00" fill="#c6c5fe">components/NodeFieldForm.tsx</text>
</g>
<!-- components/NodeDetail.tsx&#45;&gt;components/NodeFieldForm.tsx -->
<g id="edge21" class="edge">
<title>components/NodeDetail.tsx&#45;&gt;components/NodeFieldForm.tsx</title>
<path fill="none" stroke="#757575" d="M912.75,-158.95C921.14,-156.4 929.4,-153.29 937,-149.5 955.9,-140.08 954.19,-128.1 973,-118.5 982.1,-113.85 992.05,-110.02 1002.12,-106.86"/>
<polygon fill="#757575" stroke="#757575" points="1003.18,-110.2 1011.8,-104.04 1001.22,-103.48 1003.18,-110.2"/>
</g>
<!-- components/NodeForm.tsx -->
<g id="node25" class="node">
<title>components/NodeForm.tsx</title>
<path fill="none" stroke="#c6c5fe" d="M1165.83,-263C1165.83,-263 1001.17,-263 1001.17,-263 997.33,-263 993.5,-259.17 993.5,-255.33 993.5,-255.33 993.5,-247.67 993.5,-247.67 993.5,-243.83 997.33,-240 1001.17,-240 1001.17,-240 1165.83,-240 1165.83,-240 1169.67,-240 1173.5,-243.83 1173.5,-247.67 1173.5,-247.67 1173.5,-255.33 1173.5,-255.33 1173.5,-259.17 1169.67,-263 1165.83,-263"/>
<text text-anchor="middle" x="1083.5" y="-247.8" font-family="Arial" font-size="14.00" fill="#c6c5fe">components/NodeForm.tsx</text>
</g>
<!-- components/NodeDetail.tsx&#45;&gt;components/NodeForm.tsx -->
<g id="edge22" class="edge">
<title>components/NodeDetail.tsx&#45;&gt;components/NodeForm.tsx</title>
<path fill="none" stroke="#757575" d="M861.91,-182.11C887.61,-195.58 932.32,-217.59 973,-230.5 981.54,-233.21 990.56,-235.63 999.62,-237.77"/>
<polygon fill="#757575" stroke="#757575" points="998.93,-241.2 1009.45,-239.98 1000.46,-234.37 998.93,-241.2"/>
</g>
<!-- components/NodeTagEdit.tsx -->
<g id="node26" class="node">
<title>components/NodeTagEdit.tsx</title>
<path fill="none" stroke="#cfffac" d="M1172.33,-222C1172.33,-222 994.67,-222 994.67,-222 990.83,-222 987,-218.17 987,-214.33 987,-214.33 987,-206.67 987,-206.67 987,-202.83 990.83,-199 994.67,-199 994.67,-199 1172.33,-199 1172.33,-199 1176.17,-199 1180,-202.83 1180,-206.67 1180,-206.67 1180,-214.33 1180,-214.33 1180,-218.17 1176.17,-222 1172.33,-222"/>
<text text-anchor="middle" x="1083.5" y="-206.8" font-family="Arial" font-size="14.00" fill="#cfffac">components/NodeTagEdit.tsx</text>
</g>
<!-- components/NodeDetail.tsx&#45;&gt;components/NodeTagEdit.tsx -->
<g id="edge23" class="edge">
<title>components/NodeDetail.tsx&#45;&gt;components/NodeTagEdit.tsx</title>
<path fill="none" stroke="#757575" d="M910.17,-182.02C939.15,-186.81 972.95,-192.39 1002.9,-197.34"/>
<polygon fill="#757575" stroke="#757575" points="1002.46,-200.82 1012.9,-199 1003.61,-193.91 1002.46,-200.82"/>
</g>
<!-- components/NodeNaming.tsx -->
<g id="node18" class="node">
<title>components/NodeNaming.tsx</title>
<path fill="none" stroke="#cfffac" d="M929.33,-59C929.33,-59 749.67,-59 749.67,-59 745.83,-59 742,-55.17 742,-51.33 742,-51.33 742,-43.67 742,-43.67 742,-39.83 745.83,-36 749.67,-36 749.67,-36 929.33,-36 929.33,-36 933.17,-36 937,-39.83 937,-43.67 937,-43.67 937,-51.33 937,-51.33 937,-55.17 933.17,-59 929.33,-59"/>
<text text-anchor="middle" x="839.5" y="-43.8" font-family="Arial" font-size="14.00" fill="#cfffac">components/NodeNaming.tsx</text>
</g>
<!-- components/Graph.tsx&#45;&gt;components/NodeNaming.tsx -->
<g id="edge14" class="edge">
<title>components/Graph.tsx&#45;&gt;components/NodeNaming.tsx</title>
<path fill="none" stroke="#757575" d="M626.07,-106.98C655.09,-95.79 701.12,-78.87 742,-67.5 750,-65.28 758.43,-63.18 766.84,-61.23"/>
<polygon fill="#757575" stroke="#757575" points="767.69,-64.63 776.69,-59.03 766.16,-57.8 767.69,-64.63"/>
</g>
<!-- components/Toolbar.tsx -->
<g id="node19" class="node">
<title>components/Toolbar.tsx</title>
<path fill="none" stroke="#cfffac" d="M911.33,-141C911.33,-141 767.67,-141 767.67,-141 763.83,-141 760,-137.17 760,-133.33 760,-133.33 760,-125.67 760,-125.67 760,-121.83 763.83,-118 767.67,-118 767.67,-118 911.33,-118 911.33,-118 915.17,-118 919,-121.83 919,-125.67 919,-125.67 919,-133.33 919,-133.33 919,-137.17 915.17,-141 911.33,-141"/>
<text text-anchor="middle" x="839.5" y="-125.8" font-family="Arial" font-size="14.00" fill="#cfffac">components/Toolbar.tsx</text>
</g>
<!-- components/Graph.tsx&#45;&gt;components/Toolbar.tsx -->
<g id="edge15" class="edge">
<title>components/Graph.tsx&#45;&gt;components/Toolbar.tsx</title>
<path fill="none" stroke="#757575" d="M673.08,-121.97C697.38,-123.07 724.5,-124.31 749.63,-125.45"/>
<polygon fill="#757575" stroke="#757575" points="749.74,-128.96 759.89,-125.92 750.06,-121.97 749.74,-128.96"/>
</g>
<!-- components/styles/Graph.css -->
<g id="node20" class="node">
<title>components/styles/Graph.css</title>
<path fill="none" stroke="#cfffac" d="M929.33,-100C929.33,-100 749.67,-100 749.67,-100 745.83,-100 742,-96.17 742,-92.33 742,-92.33 742,-84.67 742,-84.67 742,-80.83 745.83,-77 749.67,-77 749.67,-77 929.33,-77 929.33,-77 933.17,-77 937,-80.83 937,-84.67 937,-84.67 937,-92.33 937,-92.33 937,-96.17 933.17,-100 929.33,-100"/>
<text text-anchor="middle" x="839.5" y="-84.8" font-family="Arial" font-size="14.00" fill="#cfffac">components/styles/Graph.css</text>
</g>
<!-- components/Graph.tsx&#45;&gt;components/styles/Graph.css -->
<g id="edge16" class="edge">
<title>components/Graph.tsx&#45;&gt;components/styles/Graph.css</title>
<path fill="none" stroke="#757575" d="M673.08,-109.05C693.01,-106.57 714.84,-103.86 735.9,-101.24"/>
<polygon fill="#757575" stroke="#757575" points="736.35,-104.72 745.85,-100.01 735.49,-97.77 736.35,-104.72"/>
</g>
<!-- components/NodeFieldForm.tsx&#45;&gt;components/AssignUsers.tsx -->
<g id="edge25" class="edge">
<title>components/NodeFieldForm.tsx&#45;&gt;components/AssignUsers.tsx</title>
<path fill="none" stroke="#757575" d="M1159.35,-104.02C1190.76,-108.85 1227.44,-114.49 1259.82,-119.47"/>
<polygon fill="#757575" stroke="#757575" points="1259.31,-122.93 1269.72,-121 1260.37,-116.02 1259.31,-122.93"/>
</g>
<!-- components/NodeFieldForm.tsx&#45;&gt;components/styles/Sidebar.css -->
<g id="edge27" class="edge">
<title>components/NodeFieldForm.tsx&#45;&gt;components/styles/Sidebar.css</title>
<path fill="none" stroke="#757575" d="M1188.31,-91.04C1264.34,-91.59 1369.74,-95.73 1461,-111.5 1494.12,-117.22 1530.52,-128.41 1557.39,-137.66"/>
<polygon fill="#757575" stroke="#757575" points="1556.24,-140.97 1566.84,-140.96 1558.56,-134.36 1556.24,-140.97"/>
</g>
<!-- components/NodeFieldForm.tsx&#45;&gt;components/AssignedUsers.tsx -->
<g id="edge26" class="edge">
<title>components/NodeFieldForm.tsx&#45;&gt;components/AssignedUsers.tsx</title>
<path fill="none" stroke="#757575" d="M1159.35,-80.98C1190.76,-76.15 1227.44,-70.51 1259.82,-65.53"/>
<polygon fill="#757575" stroke="#757575" points="1260.37,-68.98 1269.72,-64 1259.31,-62.07 1260.37,-68.98"/>
</g>
<!-- components/NodeForm.tsx&#45;&gt;components/styles/Sidebar.css -->
<g id="edge28" class="edge">
<title>components/NodeForm.tsx&#45;&gt;components/styles/Sidebar.css</title>
<path fill="none" stroke="#757575" d="M1160.89,-239.99C1237.17,-228.1 1357.63,-208.27 1461,-186.5 1488.85,-180.64 1519.63,-173.07 1544.9,-166.56"/>
<polygon fill="#757575" stroke="#757575" points="1545.85,-169.93 1554.65,-164.03 1544.09,-163.15 1545.85,-169.93"/>
</g>
<!-- components/ProjectCard.tsx&#45;&gt;reducers/projectReducer.ts -->
<g id="edge30" class="edge">
<title>components/ProjectCard.tsx&#45;&gt;reducers/projectReducer.ts</title>
<path fill="none" stroke="#757575" d="M652.71,-454.03C688.51,-461.45 735.19,-471.11 772.8,-478.9"/>
<polygon fill="#757575" stroke="#757575" points="772.15,-482.34 782.65,-480.94 773.57,-475.48 772.15,-482.34"/>
</g>
<!-- components/ProjectCard.tsx&#45;&gt;components/ProjectForm.tsx -->
<g id="edge29" class="edge">
<title>components/ProjectCard.tsx&#45;&gt;components/ProjectForm.tsx</title>
<path fill="none" stroke="#757575" d="M689.68,-438.66C704.27,-438.06 719.44,-437.43 734.27,-436.82"/>
<polygon fill="#757575" stroke="#757575" points="734.62,-440.3 744.47,-436.39 734.33,-433.31 734.62,-440.3"/>
</g>
<!-- components/styles/Form.css -->
<g id="node30" class="node">
<title>components/styles/Form.css</title>
<path fill="none" stroke="#cfffac" d="M926.33,-343C926.33,-343 752.67,-343 752.67,-343 748.83,-343 745,-339.17 745,-335.33 745,-335.33 745,-327.67 745,-327.67 745,-323.83 748.83,-320 752.67,-320 752.67,-320 926.33,-320 926.33,-320 930.17,-320 934,-323.83 934,-327.67 934,-327.67 934,-335.33 934,-335.33 934,-339.17 930.17,-343 926.33,-343"/>
<text text-anchor="middle" x="839.5" y="-327.8" font-family="Arial" font-size="14.00" fill="#cfffac">components/styles/Form.css</text>
</g>
<!-- components/RegistrationForm.tsx&#45;&gt;components/styles/Form.css -->
<g id="edge34" class="edge">
<title>components/RegistrationForm.tsx&#45;&gt;components/styles/Form.css</title>
<path fill="none" stroke="#757575" d="M706.09,-326.02C715.55,-326.41 725.1,-326.8 734.51,-327.19"/>
<polygon fill="#757575" stroke="#757575" points="734.52,-330.7 744.66,-327.61 734.81,-323.7 734.52,-330.7"/>
</g>
<!-- index.css -->
<g id="node31" class="node">
<title>index.css</title>
<path fill="none" stroke="#cfffac" d="M198.33,-534C198.33,-534 140.67,-534 140.67,-534 136.83,-534 133,-530.17 133,-526.33 133,-526.33 133,-518.67 133,-518.67 133,-514.83 136.83,-511 140.67,-511 140.67,-511 198.33,-511 198.33,-511 202.17,-511 206,-514.83 206,-518.67 206,-518.67 206,-526.33 206,-526.33 206,-530.17 202.17,-534 198.33,-534"/>
<text text-anchor="middle" x="169.5" y="-518.8" font-family="Arial" font-size="14.00" fill="#cfffac">index.css</text>
</g>
<!-- index.tsx -->
<g id="node32" class="node">
<title>index.tsx</title>
<path fill="none" stroke="#c6c5fe" d="M62.33,-513C62.33,-513 7.67,-513 7.67,-513 3.83,-513 0,-509.17 0,-505.33 0,-505.33 0,-497.67 0,-497.67 0,-493.83 3.83,-490 7.67,-490 7.67,-490 62.33,-490 62.33,-490 66.17,-490 70,-493.83 70,-497.67 70,-497.67 70,-505.33 70,-505.33 70,-509.17 66.17,-513 62.33,-513"/>
<text text-anchor="middle" x="35" y="-497.8" font-family="Arial" font-size="14.00" fill="#c6c5fe">index.tsx</text>
</g>
<!-- index.tsx&#45;&gt;App.tsx -->
<g id="edge35" class="edge">
<title>index.tsx&#45;&gt;App.tsx</title>
<path fill="none" stroke="#757575" d="M55.4,-489.91C69.34,-481.72 88.65,-470.61 106,-461.5 115.02,-456.77 124.9,-451.89 134.09,-447.47"/>
<polygon fill="#757575" stroke="#757575" points="135.83,-450.52 143.36,-443.07 132.82,-444.2 135.83,-450.52"/>
</g>
<!-- index.tsx&#45;&gt;index.css -->
<g id="edge36" class="edge">
<title>index.tsx&#45;&gt;index.css</title>
<path fill="none" stroke="#757575" d="M70.12,-506.91C86.15,-509.45 105.48,-512.51 122.75,-515.25"/>
<polygon fill="#757575" stroke="#757575" points="122.22,-518.71 132.64,-516.82 123.31,-511.79 122.22,-518.71"/>
</g>
<!-- reportWebVitals.ts -->
<g id="node33" class="node">
<title>reportWebVitals.ts</title>
<path fill="none" stroke="#cfffac" d="M225.33,-493C225.33,-493 113.67,-493 113.67,-493 109.83,-493 106,-489.17 106,-485.33 106,-485.33 106,-477.67 106,-477.67 106,-473.83 109.83,-470 113.67,-470 113.67,-470 225.33,-470 225.33,-470 229.17,-470 233,-473.83 233,-477.67 233,-477.67 233,-485.33 233,-485.33 233,-489.17 229.17,-493 225.33,-493"/>
<text text-anchor="middle" x="169.5" y="-477.8" font-family="Arial" font-size="14.00" fill="#cfffac">reportWebVitals.ts</text>
</g>
<!-- index.tsx&#45;&gt;reportWebVitals.ts -->
<g id="edge37" class="edge">
<title>index.tsx&#45;&gt;reportWebVitals.ts</title>
<path fill="none" stroke="#757575" d="M70.12,-496.35C78.09,-495.15 86.87,-493.82 95.82,-492.47"/>
<polygon fill="#757575" stroke="#757575" points="96.58,-495.9 105.94,-490.94 95.53,-488.97 96.58,-495.9"/>
</g>
<!-- store.ts -->
<g id="node34" class="node">
<title>store.ts</title>
<path fill="none" stroke="#c6c5fe" d="M192.33,-580C192.33,-580 146.67,-580 146.67,-580 142.83,-580 139,-576.17 139,-572.33 139,-572.33 139,-564.67 139,-564.67 139,-560.83 142.83,-557 146.67,-557 146.67,-557 192.33,-557 192.33,-557 196.17,-557 200,-560.83 200,-564.67 200,-564.67 200,-572.33 200,-572.33 200,-576.17 196.17,-580 192.33,-580"/>
<text text-anchor="middle" x="169.5" y="-564.8" font-family="Arial" font-size="14.00" fill="#c6c5fe">store.ts</text>
</g>
<!-- index.tsx&#45;&gt;store.ts -->
<g id="edge38" class="edge">
<title>index.tsx&#45;&gt;store.ts</title>
<path fill="none" stroke="#757575" d="M53.4,-513.01C67.3,-521.94 87.46,-534.31 106,-543.5 113.44,-547.19 121.57,-550.76 129.43,-553.99"/>
<polygon fill="#757575" stroke="#757575" points="128.24,-557.28 138.82,-557.75 130.84,-550.78 128.24,-557.28"/>
</g>
<!-- store.ts&#45;&gt;reducers/projectReducer.ts -->
<g id="edge45" class="edge">
<title>store.ts&#45;&gt;reducers/projectReducer.ts</title>
<path fill="none" stroke="#757575" d="M200.23,-570.02C219.77,-570.94 245.9,-572.03 269,-572.5 349.43,-574.13 369.97,-580.65 450,-572.5 572.19,-560.05 712.7,-526.11 786.69,-506.68"/>
<polygon fill="#757575" stroke="#757575" points="787.91,-509.97 796.68,-504.03 786.12,-503.21 787.91,-509.97"/>
</g>
</g>
</svg>
